<svg xmlns="http://www.w3.org/2000/svg" viewBox="0 0 32 32" role="img" aria-label="Building QR">
  <rect width="32" height="32" rx="7" fill="#1d1450"/>
  <g fill="#f59f00">
    <path d="M4 4h9v9H4zM6 6v5h5V6z" fill-rule="evenodd"/>
    <rect x="7.5" y="7.5" width="2" height="2"/>
    <path d="M19 4h9v9h-9zM21 6v5h5V6z" fill-rule="evenodd"/>
    <rect x="22.5" y="7.5" width="2" height="2"/>
    <path d="M4 19h9v9H4zM6 21v5h5v-5z" fill-rule="evenodd"/>
    <rect x="7.5" y="22.5" width="2" height="2"/>
  </g>
  <g fill="#6be4d8">
    <rect x="19" y="19" width="3" height="3"/>
    <rect x="25" y="22" width="3" height="3"/>
    <rect x="22" y="25" width="3" height="3"/>
  </g>
  <g fill="#7c9cff">
    <rect x="25" y="19" width="3" height="3"/>
    <rect x="19" y="25" width="3" height="3"/>
  </g>
</svg>
